{
  "source": "C:\\Users\\Peter\\Desktop\\stuff\\MIUN\\quantitative_research\\video_compression\\videos\\BVI-HD\\BVI-HD_CDVL_videos\\ORIG\\Grass_1920x1080_60fps.mp4",
  "output": "C:\\Users\\Peter\\Desktop\\stuff\\MIUN\\quantitative_research\\video_compression\\compressed_videos\\BVI-HD\\av1\\4\\Grass_1920x1080_60fps_av1.mkv",
  "codec": "av1",
  "ok": "Input #0, mov,mp4,m4a,3gp,3g2,mj2, from 'C:\\Users\\Peter\\Desktop\\stuff\\MIUN\\quantitative_research\\video_compression\\videos\\BVI-HD\\BVI-HD_CDVL_videos\\ORIG\\Grass_1920x1080_60fps.mp4':\n  Metadata:\n    major_brand     : isom\n    minor_version   : 512\n    compatible_brands: isomiso2avc1mp41\n    encoder         : Lavf54.28.101\n  Duration: 00:00:05.00, start: 0.000000, bitrate: 655968 kb/s\n  Stream #0:0[0x1](und): Video: h264 (High 4:4:4 Predictive) (avc1 / 0x31637661), yuv420p(progressive), 1920x1080, 655963 kb/s, 60 fps, 60 tbr, 60 tbn (default)\n    Metadata:\n      handler_name    : VideoHandler\n      vendor_id       : [0][0][0][0]\n[out#0/matroska @ 000001c1ad919180] Codec AVOption b:a (set bitrate (in bits/s)) has not been used for any stream. The most likely reason is either wrong type (e.g. a video option with no video streams) or that it is a private option of some decoder which was not actually used for any stream.\nStream mapping:\n  Stream #0:0 -> #0:0 (h264 (native) -> av1 (libsvtav1))\nPress [q] to stop, [?] for help\nSvt[info]: -------------------------------------------\nSvt[info]: SVT [version]:\tSVT-AV1 Encoder Lib v3.1.0-19-g6ecfe8ec\nSvt[info]: SVT [build]  :\tGCC 15.2.0\t 64 bit\nSvt[info]: LIB Build date: Aug 17 2025 11:37:13\nSvt[info]: -------------------------------------------\nSvt[info]: Level of Parallelism: 5\nSvt[info]: Number of PPCS 93\nSvt[info]: [asm level on system : up to avx2]\nSvt[info]: [asm level selected : up to avx2]\nSvt[info]: -------------------------------------------\nSvt[info]: SVT [config]: main profile\ttier (auto)\tlevel (auto)\nSvt[info]: SVT [config]: width / height / fps numerator / fps denominator \t\t: 1920 / 1080 / 60 / 1\nSvt[info]: SVT [config]: bit-depth / color format \t\t\t\t\t: 8 / YUV420\nSvt[info]: SVT [config]: preset / tune / pred struct \t\t\t\t\t: 4 / PSNR / random access\nSvt[info]: SVT [config]: gop size / mini-gop size / key-frame type \t\t\t: 321 / 16 / key frame\nSvt[info]: SVT [config]: BRC mode / target bitrate (kbps)\t\t\t\t: VBR / 4000 \nSvt[info]: SVT [config]: AQ mode / Variance Boost \t\t\t\t\t: 2 / 0\nSvt[info]: SVT [config]: sharpness / luminance-based QP bias \t\t\t\t: 0 / 0\nSvt[info]: SVT [config]: QP scale compress strength \t\t\t\t\t: 0\nSvt[info]: -------------------------------------------\nOutput #0, matroska, to 'C:\\Users\\Peter\\Desktop\\stuff\\MIUN\\quantitative_research\\video_compression\\compressed_videos\\BVI-HD\\av1\\4\\Grass_1920x1080_60fps_av1.mkv':\n  Metadata:\n    major_brand     : isom\n    minor_version   : 512\n    compatible_brands: isomiso2avc1mp41\n    encoder         : Lavf62.3.100\n  Stream #0:0(und): Video: av1 (AV01 / 0x31305641), yuv420p(tv, progressive), 1920x1080, q=2-31, 4000 kb/s, 60 fps, 1k tbn (default)\n    Metadata:\n      encoder         : Lavc62.11.100 libsvtav1\n      handler_name    : VideoHandler\n      vendor_id       : [0][0][0][0]\n    Side data:\n      cpb: bitrate max/min/avg: 0/0/4000000 buffer size: 4000000 vbv_delay: N/A\nframe=    0 fps=0.0 q=0.0 size=       0KiB time=N/A bitrate=N/A speed=N/A elapsed=0:00:01.69    \nframe=    0 fps=0.0 q=0.0 size=       0KiB time=N/A bitrate=N/A speed=N/A elapsed=0:00:02.31    \nframe=    0 fps=0.0 q=0.0 size=       0KiB time=N/A bitrate=N/A speed=N/A elapsed=0:00:02.92    \nframe=    0 fps=0.0 q=0.0 size=       0KiB time=N/A bitrate=N/A speed=N/A elapsed=0:00:03.50    \nframe=    0 fps=0.0 q=0.0 size=       0KiB time=N/A bitrate=N/A speed=N/A elapsed=0:00:04.11    \nframe=    0 fps=0.0 q=0.0 size=       0KiB time=N/A bitrate=N/A speed=N/A elapsed=0:00:04.69    \nframe=    0 fps=0.0 q=0.0 size=       0KiB time=N/A bitrate=N/A speed=N/A elapsed=0:00:05.25    \nframe=    0 fps=0.0 q=0.0 size=       0KiB time=N/A bitrate=N/A speed=N/A elapsed=0:00:05.79    \nframe=    0 fps=0.0 q=0.0 size=       0KiB time=N/A bitrate=N/A speed=N/A elapsed=0:00:06.36    \nframe=    0 fps=0.0 q=0.0 size=       0KiB time=N/A bitrate=N/A speed=N/A elapsed=0:00:06.89    \nframe=    0 fps=0.0 q=0.0 size=       0KiB time=N/A bitrate=N/A speed=N/A elapsed=0:00:07.45    \nframe=    0 fps=0.0 q=0.0 size=       0KiB time=N/A bitrate=N/A speed=N/A elapsed=0:00:08.02    \nframe=    0 fps=0.0 q=0.0 size=       0KiB time=N/A bitrate=N/A speed=N/A elapsed=0:00:08.58    \nframe=    0 fps=0.0 q=0.0 size=       0KiB time=N/A bitrate=N/A speed=N/A elapsed=0:00:09.11    \nframe=    0 fps=0.0 q=0.0 size=       0KiB time=N/A bitrate=N/A speed=N/A elapsed=0:00:09.64    \nframe=    1 fps=0.1 q=16.0 size=       1KiB time=00:00:00.00 bitrate=N/A speed=   0x elapsed=0:00:10.18    \nframe=    1 fps=0.1 q=16.0 size=       1KiB time=00:00:00.00 bitrate=N/A speed=   0x elapsed=0:00:10.78    \nframe=    1 fps=0.1 q=16.0 size=       1KiB time=00:00:00.00 bitrate=N/A speed=   0x elapsed=0:00:11.36    \nframe=    2 fps=0.2 q=46.0 size=       1KiB time=00:00:00.01 bitrate= 341.8kbits/s speed=0.0014x elapsed=0:00:11.94    \nframe=    6 fps=0.5 q=45.0 size=       1KiB time=00:00:00.08 bitrate=  68.4kbits/s speed=0.00664x elapsed=0:00:12.54    \nframe=    9 fps=0.7 q=38.0 size=       1KiB time=00:00:00.13 bitrate=  42.7kbits/s speed=0.0101x elapsed=0:00:13.16    \nframe=   14 fps=1.0 q=45.0 size=       1KiB time=00:00:00.21 bitrate=  26.3kbits/s speed=0.0158x elapsed=0:00:13.71    \nframe=   15 fps=1.1 q=44.0 size=       1KiB time=00:00:00.23 bitrate=  24.4kbits/s speed=0.0163x elapsed=0:00:14.28    \nframe=   19 fps=1.3 q=44.0 size=       1KiB time=00:00:00.30 bitrate=  19.0kbits/s speed=0.0202x elapsed=0:00:14.84    \nframe=   22 fps=1.4 q=45.0 size=       1KiB time=00:00:00.35 bitrate=  16.3kbits/s speed=0.0226x elapsed=0:00:15.45    \nframe=   25 fps=1.6 q=38.0 size=       1KiB time=00:00:00.40 bitrate=  14.2kbits/s speed=0.025x elapsed=0:00:15.99    \nframe=   27 fps=1.6 q=44.0 size=       1KiB time=00:00:00.43 bitrate=  13.1kbits/s speed=0.0262x elapsed=0:00:16.52    \nframe=   31 fps=1.8 q=38.0 size=       1KiB time=00:00:00.50 bitrate=  11.4kbits/s speed=0.0293x elapsed=0:00:17.06    \nframe=   35 fps=2.0 q=44.0 size=       1KiB time=00:00:00.56 bitrate=  10.1kbits/s speed=0.0321x elapsed=0:00:17.66    \nframe=   38 fps=2.1 q=45.0 size=       1KiB time=00:00:00.61 bitrate=   9.2kbits/s speed=0.0338x elapsed=0:00:18.26    \nframe=   43 fps=2.3 q=44.0 size=       1KiB time=00:00:00.70 bitrate=   8.1kbits/s speed=0.0372x elapsed=0:00:18.80    \nframe=   47 fps=2.4 q=44.0 size=       1KiB time=00:00:00.75 bitrate=   7.6kbits/s speed=0.0387x elapsed=0:00:19.40    \nframe=   48 fps=2.4 q=45.0 size=       1KiB time=00:00:00.78 bitrate=   7.3kbits/s speed=0.0393x elapsed=0:00:19.93    \nframe=   51 fps=2.5 q=44.0 size=       1KiB time=00:00:00.83 bitrate=   6.8kbits/s speed=0.0406x elapsed=0:00:20.50    \nframe=   54 fps=2.6 q=45.0 size=       1KiB time=00:00:00.88 bitrate=   6.4kbits/s speed=0.0419x elapsed=0:00:21.10    \nframe=   59 fps=2.7 q=44.0 size=       1KiB time=00:00:00.96 bitrate=   5.9kbits/s speed=0.0446x elapsed=0:00:21.69    \nframe=   63 fps=2.8 q=38.0 size=       1KiB time=00:00:01.03 bitrate=   5.5kbits/s speed=0.0463x elapsed=0:00:22.29    \nframe=   65 fps=2.8 q=30.0 size=       1KiB time=00:00:01.06 bitrate=   5.3kbits/s speed=0.0467x elapsed=0:00:22.85    \nframe=   70 fps=3.0 q=45.0 size=       1KiB time=00:00:01.15 bitrate=   5.0kbits/s speed=0.0491x elapsed=0:00:23.42    \nframe=   72 fps=3.0 q=45.0 size=       1KiB time=00:00:01.18 bitrate=   4.8kbits/s speed=0.0494x elapsed=0:00:23.96    \nframe=   77 fps=3.1 q=42.0 size=       1KiB time=00:00:01.26 bitrate=   4.5kbits/s speed=0.0516x elapsed=0:00:24.54    \nframe=   80 fps=3.2 q=41.0 size=       1KiB time=00:00:01.31 bitrate=   4.3kbits/s speed=0.0525x elapsed=0:00:25.08    \nframe=   85 fps=3.3 q=41.0 size=       1KiB time=00:00:01.40 bitrate=   4.1kbits/s speed=0.0546x elapsed=0:00:25.64    \nframe=   87 fps=3.3 q=43.0 size=       1KiB time=00:00:01.43 bitrate=   4.0kbits/s speed=0.0547x elapsed=0:00:26.18    \nframe=   91 fps=3.4 q=43.0 size=       1KiB time=00:00:01.50 bitrate=   3.8kbits/s speed=0.0561x elapsed=0:00:26.74    \nframe=   95 fps=3.5 q=39.0 size=       1KiB time=00:00:01.56 bitrate=   3.6kbits/s speed=0.0574x elapsed=0:00:27.30    \nframe=   99 fps=3.6 q=43.0 size=       1KiB time=00:00:01.63 bitrate=   3.5kbits/s speed=0.0586x elapsed=0:00:27.86    \nframe=  102 fps=3.6 q=44.0 size=       1KiB time=00:00:01.68 bitrate=   3.4kbits/s speed=0.0592x elapsed=0:00:28.42    \nframe=  106 fps=3.7 q=44.0 size=       1KiB time=00:00:01.75 bitrate=   3.3kbits/s speed=0.0605x elapsed=0:00:28.94    \nframe=  110 fps=3.7 q=44.0 size=       1KiB time=00:00:01.81 bitrate=   3.1kbits/s speed=0.0616x elapsed=0:00:29.48    \nframe=  112 fps=3.7 q=44.0 size=       1KiB time=00:00:01.83 bitrate=   3.1kbits/s speed=0.0611x elapsed=0:00:30.02    \nframe=  117 fps=3.8 q=41.0 size=       1KiB time=00:00:01.90 bitrate=   3.0kbits/s speed=0.0621x elapsed=0:00:30.60    \nframe=  119 fps=3.8 q=43.0 size=       1KiB time=00:00:01.96 bitrate=   2.9kbits/s speed=0.063x elapsed=0:00:31.21    \nframe=  126 fps=4.0 q=44.0 size=       1KiB time=00:00:02.08 bitrate=   2.7kbits/s speed=0.0655x elapsed=0:00:31.79    \nframe=  127 fps=3.9 q=43.0 size=       1KiB time=00:00:02.10 bitrate=   2.7kbits/s speed=0.0649x elapsed=0:00:32.33    \nframe=  130 fps=4.0 q=45.0 size=       1KiB time=00:00:02.15 bitrate=   2.6kbits/s speed=0.0654x elapsed=0:00:32.87    \nframe=  134 fps=4.0 q=45.0 size=       1KiB time=00:00:02.21 bitrate=   2.6kbits/s speed=0.0663x elapsed=0:00:33.42    \nframe=  137 fps=4.0 q=38.0 size=       1KiB time=00:00:02.26 bitrate=   2.5kbits/s speed=0.0668x elapsed=0:00:33.95    \nframe=  142 fps=4.1 q=43.0 size=       1KiB time=00:00:02.35 bitrate=   2.4kbits/s speed=0.0681x elapsed=0:00:34.48    \nframe=  144 fps=4.1 q=43.0 size=       1KiB time=00:00:02.38 bitrate=   2.4kbits/s speed=0.068x elapsed=0:00:35.03    \nframe=  149 fps=4.2 q=42.0 size=       1KiB time=00:00:02.45 bitrate=   2.3kbits/s speed=0.0688x elapsed=0:00:35.63    \nframe=  151 fps=4.2 q=44.0 size=       1KiB time=00:00:02.50 bitrate=   2.3kbits/s speed=0.069x elapsed=0:00:36.22    \nframe=  156 fps=4.2 q=45.0 size=       1KiB time=00:00:02.58 bitrate=   2.2kbits/s speed=0.0703x elapsed=0:00:36.77    \nframe=  160 fps=4.3 q=43.0 size=       1KiB time=00:00:02.65 bitrate=   2.1kbits/s speed=0.071x elapsed=0:00:37.32    \nframe=  166 fps=4.4 q=45.0 size=       1KiB time=00:00:02.73 bitrate=   2.1kbits/s speed=0.0721x elapsed=0:00:37.91    \nframe=  169 fps=4.4 q=38.0 size=       1KiB time=00:00:02.80 bitrate=   2.0kbits/s speed=0.0728x elapsed=0:00:38.45    \nframe=  174 fps=4.5 q=45.0 size=       1KiB time=00:00:02.88 bitrate=   2.0kbits/s speed=0.074x elapsed=0:00:38.97    \nframe=  175 fps=4.4 q=44.0 size=       1KiB time=00:00:02.90 bitrate=   2.0kbits/s speed=0.0734x elapsed=0:00:39.52    \nframe=  179 fps=4.5 q=44.0 size=       1KiB time=00:00:02.96 bitrate=   1.9kbits/s speed=0.0741x elapsed=0:00:40.05    \nframe=  182 fps=4.5 q=45.0 size=       1KiB time=00:00:03.01 bitrate=   1.9kbits/s speed=0.0743x elapsed=0:00:40.57    \nframe=  186 fps=4.5 q=45.0 size=       1KiB time=00:00:03.08 bitrate=   1.8kbits/s speed=0.075x elapsed=0:00:41.13    \nframe=  191 fps=4.6 q=44.0 size=       1KiB time=00:00:03.15 bitrate=   1.8kbits/s speed=0.0756x elapsed=0:00:41.69    \nframe=  193 fps=4.6 q=30.0 size=       1KiB time=00:00:03.20 bitrate=   1.8kbits/s speed=0.0758x elapsed=0:00:42.23    \nframe=  198 fps=4.6 q=44.0 size=       1KiB time=00:00:03.28 bitrate=   1.7kbits/s speed=0.0767x elapsed=0:00:42.79    \nframe=  201 fps=4.6 q=37.0 size=       1KiB time=00:00:03.33 bitrate=   1.7kbits/s speed=0.0769x elapsed=0:00:43.34    \nframe=  209 fps=4.8 q=29.0 size=       1KiB time=00:00:03.46 bitrate=   1.6kbits/s speed=0.079x elapsed=0:00:43.88    \nframe=  209 fps=4.7 q=29.0 size=       1KiB time=00:00:03.46 bitrate=   1.6kbits/s speed=0.078x elapsed=0:00:44.43    \nframe=  211 fps=4.7 q=43.0 size=       1KiB time=00:00:03.50 bitrate=   1.6kbits/s speed=0.0778x elapsed=0:00:44.97    \nframe=  217 fps=4.8 q=37.0 size=       1KiB time=00:00:03.60 bitrate=   1.6kbits/s speed=0.079x elapsed=0:00:45.54    \nframe=  221 fps=4.8 q=41.0 size=       1KiB time=00:00:03.66 bitrate=   1.6kbits/s speed=0.0794x elapsed=0:00:46.16    \nframe=  225 fps=4.8 q=29.0 size=       1KiB time=00:00:03.73 bitrate=   1.5kbits/s speed=0.0799x elapsed=0:00:46.71    \nframe=  227 fps=4.8 q=43.0 size=       1KiB time=00:00:03.73 bitrate=   1.5kbits/s speed=0.079x elapsed=0:00:47.24    \nframe=  233 fps=4.9 q=37.0 size=       1KiB time=00:00:03.86 bitrate=   1.5kbits/s speed=0.0809x elapsed=0:00:47.81    \nframe=  237 fps=4.9 q=41.0 size=       1KiB time=00:00:03.93 bitrate=   1.4kbits/s speed=0.0814x elapsed=0:00:48.33    \nframe=  241 fps=4.9 q=29.0 size=       1KiB time=00:00:04.00 bitrate=   1.4kbits/s speed=0.0819x elapsed=0:00:48.84    \nframe=  243 fps=4.9 q=43.0 size=       1KiB time=00:00:04.03 bitrate=   1.4kbits/s speed=0.0816x elapsed=0:00:49.41    \nframe=  249 fps=5.0 q=37.0 size=       1KiB time=00:00:04.13 bitrate=   1.4kbits/s speed=0.0826x elapsed=0:00:50.01    \nframe=  255 fps=5.0 q=43.0 size=       1KiB time=00:00:04.23 bitrate=   1.3kbits/s speed=0.0837x elapsed=0:00:50.57    \nframe=  257 fps=5.0 q=29.0 size=       1KiB time=00:00:04.26 bitrate=   1.3kbits/s speed=0.0834x elapsed=0:00:51.14    \nframe=  261 fps=5.0 q=41.0 size=       1KiB time=00:00:04.33 bitrate=   1.3kbits/s speed=0.0838x elapsed=0:00:51.72    \nframe=  265 fps=5.1 q=37.0 size=       1KiB time=00:00:04.40 bitrate=   1.3kbits/s speed=0.0842x elapsed=0:00:52.26    \nframe=  273 fps=5.2 q=28.0 size=       1KiB time=00:00:04.53 bitrate=   1.3kbits/s speed=0.0859x elapsed=0:00:52.80    \nframe=  273 fps=5.1 q=28.0 size=       1KiB time=00:00:04.53 bitrate=   1.3kbits/s speed=0.085x elapsed=0:00:53.34    \nframe=  277 fps=5.1 q=40.0 size=       1KiB time=00:00:04.60 bitrate=   1.2kbits/s speed=0.0854x elapsed=0:00:53.87    \nframe=  281 fps=5.2 q=36.0 size=       1KiB time=00:00:04.66 bitrate=   1.2kbits/s speed=0.0857x elapsed=0:00:54.43    \nframe=  287 fps=5.2 q=41.0 size=       1KiB time=00:00:04.76 bitrate=   1.2kbits/s speed=0.0867x elapsed=0:00:54.98    \n[out#0/matroska @ 000001c1ad919180] video:2527KiB audio:0KiB subtitle:0KiB other streams:0KiB global headers:0KiB muxing overhead: 0.082241%\nframe=  300 fps=5.4 q=43.0 Lsize=    2529KiB time=00:00:04.98 bitrate=4157.3kbits/s speed=0.0904x elapsed=0:00:55.11    \n",
  "seconds": 56.09100961685181,
  "probe_out": {}
}